<mxfile host="app.diagrams.net" modified="2024-04-24T13:55:48.601Z" agent="Mozilla/5.0 (X11; Linux x86_64) AppleWebKit/537.36 (KHTML, like Gecko) Chrome/124.0.0.0 Safari/537.36 Edg/124.0.0.0" etag="IVkYDW0bRekmtpuHpFkp" version="24.3.0" type="github">
  <diagram id="C5RBs43oDa-KdzZeNtuy" name="Page-1">
    <mxGraphModel dx="1267" dy="779" grid="1" gridSize="10" guides="1" tooltips="1" connect="1" arrows="1" fold="1" page="1" pageScale="1" pageWidth="827" pageHeight="1169" math="0" shadow="0">
      <root>
        <mxCell id="WIyWlLk6GJQsqaUBKTNV-0" />
        <mxCell id="WIyWlLk6GJQsqaUBKTNV-1" parent="WIyWlLk6GJQsqaUBKTNV-0" />
        <mxCell id="6TrB1a4JKmCMMMaNhy3V-0" value="" style="rounded=0;html=1;jettySize=auto;orthogonalLoop=1;fontSize=11;endArrow=classicThin;endFill=1;endSize=8;strokeWidth=1;shadow=0;labelBackgroundColor=none;edgeStyle=orthogonalEdgeStyle;strokeColor=#000000;" edge="1" parent="WIyWlLk6GJQsqaUBKTNV-1" source="6TrB1a4JKmCMMMaNhy3V-2" target="6TrB1a4JKmCMMMaNhy3V-4">
          <mxGeometry relative="1" as="geometry">
            <mxPoint x="170" y="210" as="targetPoint" />
          </mxGeometry>
        </mxCell>
        <mxCell id="6TrB1a4JKmCMMMaNhy3V-1" value="建立" style="edgeLabel;html=1;align=center;verticalAlign=middle;resizable=0;points=[];fontFamily=Helvetica;fontSize=11;fontColor=default;labelBackgroundColor=none;" vertex="1" connectable="0" parent="6TrB1a4JKmCMMMaNhy3V-0">
          <mxGeometry x="-0.45" y="4" relative="1" as="geometry">
            <mxPoint x="10" y="-3" as="offset" />
          </mxGeometry>
        </mxCell>
        <mxCell id="6TrB1a4JKmCMMMaNhy3V-2" value="初始种群" style="rounded=1;whiteSpace=wrap;html=1;fontSize=12;glass=0;strokeWidth=1;shadow=0;" vertex="1" parent="WIyWlLk6GJQsqaUBKTNV-1">
          <mxGeometry x="20" y="190" width="90" height="40" as="geometry" />
        </mxCell>
        <mxCell id="6TrB1a4JKmCMMMaNhy3V-3" value="" style="edgeStyle=orthogonalEdgeStyle;rounded=0;orthogonalLoop=1;jettySize=auto;html=1;endArrow=classicThin;endFill=1;endSize=8;" edge="1" parent="WIyWlLk6GJQsqaUBKTNV-1" source="6TrB1a4JKmCMMMaNhy3V-4" target="6TrB1a4JKmCMMMaNhy3V-7">
          <mxGeometry relative="1" as="geometry" />
        </mxCell>
        <mxCell id="6TrB1a4JKmCMMMaNhy3V-4" value="更新代理模型" style="rounded=1;whiteSpace=wrap;html=1;" vertex="1" parent="WIyWlLk6GJQsqaUBKTNV-1">
          <mxGeometry x="180" y="190" width="90" height="40" as="geometry" />
        </mxCell>
        <mxCell id="6TrB1a4JKmCMMMaNhy3V-5" style="edgeStyle=orthogonalEdgeStyle;rounded=0;orthogonalLoop=1;jettySize=auto;html=1;exitX=1;exitY=0.5;exitDx=0;exitDy=0;entryX=0;entryY=0.5;entryDx=0;entryDy=0;" edge="1" parent="WIyWlLk6GJQsqaUBKTNV-1" source="6TrB1a4JKmCMMMaNhy3V-7" target="6TrB1a4JKmCMMMaNhy3V-18">
          <mxGeometry relative="1" as="geometry" />
        </mxCell>
        <mxCell id="6TrB1a4JKmCMMMaNhy3V-6" value="新种群" style="edgeLabel;html=1;align=center;verticalAlign=middle;resizable=0;points=[];" vertex="1" connectable="0" parent="6TrB1a4JKmCMMMaNhy3V-5">
          <mxGeometry x="-0.1" y="3" relative="1" as="geometry">
            <mxPoint y="-6" as="offset" />
          </mxGeometry>
        </mxCell>
        <mxCell id="6TrB1a4JKmCMMMaNhy3V-7" value="种群产生方法" style="whiteSpace=wrap;html=1;rounded=1;" vertex="1" parent="WIyWlLk6GJQsqaUBKTNV-1">
          <mxGeometry x="310" y="190" width="90" height="40" as="geometry" />
        </mxCell>
        <mxCell id="6TrB1a4JKmCMMMaNhy3V-8" value="" style="edgeStyle=orthogonalEdgeStyle;rounded=0;orthogonalLoop=1;jettySize=auto;html=1;shadow=0;strokeColor=#000000;strokeWidth=1;align=center;verticalAlign=middle;fontFamily=Helvetica;fontSize=11;fontColor=default;labelBackgroundColor=none;endArrow=classicThin;endFill=1;endSize=8;exitX=0;exitY=0.5;exitDx=0;exitDy=0;" edge="1" parent="WIyWlLk6GJQsqaUBKTNV-1" source="6TrB1a4JKmCMMMaNhy3V-9" target="6TrB1a4JKmCMMMaNhy3V-14">
          <mxGeometry relative="1" as="geometry" />
        </mxCell>
        <mxCell id="6TrB1a4JKmCMMMaNhy3V-9" value="在目标函数上&lt;div&gt;重新评估&lt;/div&gt;" style="whiteSpace=wrap;html=1;rounded=1;" vertex="1" parent="WIyWlLk6GJQsqaUBKTNV-1">
          <mxGeometry x="460" y="290" width="100" height="40" as="geometry" />
        </mxCell>
        <mxCell id="6TrB1a4JKmCMMMaNhy3V-10" value="" style="edgeStyle=orthogonalEdgeStyle;rounded=0;orthogonalLoop=1;jettySize=auto;html=1;shadow=0;strokeColor=#000000;strokeWidth=1;align=center;verticalAlign=middle;fontFamily=Helvetica;fontSize=12;fontColor=default;labelBackgroundColor=none;endArrow=classicThin;endFill=1;endSize=8;" edge="1" parent="WIyWlLk6GJQsqaUBKTNV-1" source="6TrB1a4JKmCMMMaNhy3V-14" target="6TrB1a4JKmCMMMaNhy3V-15">
          <mxGeometry relative="1" as="geometry" />
        </mxCell>
        <mxCell id="6TrB1a4JKmCMMMaNhy3V-11" value="是" style="edgeLabel;html=1;align=center;verticalAlign=middle;resizable=0;points=[];rounded=1;strokeColor=default;fontFamily=Helvetica;fontSize=12;fontColor=default;fillColor=default;" vertex="1" connectable="0" parent="6TrB1a4JKmCMMMaNhy3V-10">
          <mxGeometry x="-0.32" y="2" relative="1" as="geometry">
            <mxPoint x="-6" y="-12" as="offset" />
          </mxGeometry>
        </mxCell>
        <mxCell id="6TrB1a4JKmCMMMaNhy3V-12" style="edgeStyle=orthogonalEdgeStyle;rounded=0;orthogonalLoop=1;jettySize=auto;html=1;exitX=0.5;exitY=0;exitDx=0;exitDy=0;entryX=0.5;entryY=1;entryDx=0;entryDy=0;" edge="1" parent="WIyWlLk6GJQsqaUBKTNV-1" source="6TrB1a4JKmCMMMaNhy3V-14" target="6TrB1a4JKmCMMMaNhy3V-4">
          <mxGeometry relative="1" as="geometry" />
        </mxCell>
        <mxCell id="6TrB1a4JKmCMMMaNhy3V-13" value="否" style="edgeLabel;html=1;align=center;verticalAlign=middle;resizable=0;points=[];" vertex="1" connectable="0" parent="6TrB1a4JKmCMMMaNhy3V-12">
          <mxGeometry y="-2" relative="1" as="geometry">
            <mxPoint x="7" y="13" as="offset" />
          </mxGeometry>
        </mxCell>
        <mxCell id="6TrB1a4JKmCMMMaNhy3V-14" value="是否收敛" style="rhombus;whiteSpace=wrap;html=1;rounded=0;" vertex="1" parent="WIyWlLk6GJQsqaUBKTNV-1">
          <mxGeometry x="180" y="280" width="90" height="60" as="geometry" />
        </mxCell>
        <mxCell id="6TrB1a4JKmCMMMaNhy3V-15" value="最优解" style="whiteSpace=wrap;html=1;rounded=1;" vertex="1" parent="WIyWlLk6GJQsqaUBKTNV-1">
          <mxGeometry x="20" y="290" width="90" height="40" as="geometry" />
        </mxCell>
        <mxCell id="6TrB1a4JKmCMMMaNhy3V-16" style="edgeStyle=orthogonalEdgeStyle;rounded=0;orthogonalLoop=1;jettySize=auto;html=1;exitX=0.5;exitY=1;exitDx=0;exitDy=0;entryX=0.5;entryY=0;entryDx=0;entryDy=0;" edge="1" parent="WIyWlLk6GJQsqaUBKTNV-1" source="6TrB1a4JKmCMMMaNhy3V-18" target="6TrB1a4JKmCMMMaNhy3V-9">
          <mxGeometry relative="1" as="geometry" />
        </mxCell>
        <mxCell id="6TrB1a4JKmCMMMaNhy3V-17" value="优秀个体" style="edgeLabel;html=1;align=center;verticalAlign=middle;resizable=0;points=[];" vertex="1" connectable="0" parent="6TrB1a4JKmCMMMaNhy3V-16">
          <mxGeometry x="-0.2333" y="-1" relative="1" as="geometry">
            <mxPoint x="-29" y="7" as="offset" />
          </mxGeometry>
        </mxCell>
        <mxCell id="6TrB1a4JKmCMMMaNhy3V-18" value="模型管理策略" style="rounded=1;whiteSpace=wrap;html=1;" vertex="1" parent="WIyWlLk6GJQsqaUBKTNV-1">
          <mxGeometry x="460" y="190" width="100" height="40" as="geometry" />
        </mxCell>
      </root>
    </mxGraphModel>
  </diagram>
</mxfile>
